<?xml version="1.0" encoding="UTF-8"?>
<svg width="752pt" height="752pt" version="1.1" viewBox="0 0 752 752" xmlns="http://www.w3.org/2000/svg">
 <g fill="#1f363d">
  <path d="m379.79 356.59c10.773-9.0586 17.34-22.156 18.148-36.211 0.80859-14.051-4.207-27.816-13.871-38.051-9.6602-10.234-23.113-16.035-37.191-16.035-14.074 0-27.527 5.8008-37.191 16.035-9.6602 10.234-14.68 24-13.871 38.051 0.8125 14.055 7.375 27.152 18.148 36.211-12.496 6.1133-23.031 15.613-30.398 27.418-7.3672 11.805-11.273 25.441-11.273 39.355h18.941c-0.097657-13.617 4.8203-26.789 13.816-37.012 9-10.219 21.445-16.77 34.961-18.398h13.734c13.434 1.7383 25.766 8.332 34.664 18.543 8.9023 10.207 13.754 23.324 13.641 36.867h18.945c0.039062-13.863-3.7969-27.465-11.074-39.266-7.2812-11.797-17.719-21.328-30.129-27.508zm-65.352-39.309c0.054688-8.1445 3.1914-15.965 8.7812-21.887 5.5859-5.9219 13.215-9.5078 21.34-10.031 8.125-0.52734 16.148 2.043 22.457 7.1953 6.3047 5.1523 10.426 12.504 11.527 20.574 1.1055 8.0664-0.88672 16.254-5.5781 22.91-4.6875 6.6562-11.727 11.293-19.695 12.969h-12.785c-7.3164-1.5156-13.891-5.4922-18.629-11.266-4.7383-5.7734-7.3594-12.996-7.418-20.465z"/>
  <path d="m345.22 188.94c-51.355 0.023438-99.418 25.277-128.57 67.551-29.156 42.273-35.684 96.176-17.461 144.19s58.871 84.008 108.73 96.289 102.58-0.71484 141.02-34.773l97.559 98.031c3.7891 3.793 9.9414 3.793 13.73 0 3.793-3.7891 3.793-9.9414 0-13.73l-98.031-97.559c26.797-30.207 40.863-69.613 39.25-109.96-1.6133-40.348-18.777-78.504-47.902-106.48-29.121-27.969-67.941-43.582-108.32-43.562zm-137.34 156.28c-0.003906-45.637 22.656-88.293 60.473-113.83 37.816-25.543 85.852-30.633 128.18-13.582 42.332 17.051 73.426 54.016 82.98 98.637 9.5547 44.625-3.6797 91.078-35.316 123.97l-1.8906 1.8945-1.4219 2.3672c-26.043 25.281-61.031 39.227-97.324 38.789-36.293-0.4375-70.938-15.227-96.359-41.129-25.426-25.902-39.559-60.82-39.32-97.113z"/>
 </g>
</svg>
