<?xml version="1.0" encoding="UTF-8"?>
<svg width="752pt" height="752pt" version="1.1" viewBox="0 0 752 752" xmlns="http://www.w3.org/2000/svg">
 <g fill="#1f363d" fill-rule="evenodd">
  <path d="m434.04 366.54c-0.007812 4.1328 1.3008 7.3633 3.9961 9.8477 4.3164 3.9688 13.992 7.8828 35.621 6.668-3.8438-4.7227-5.625-10.473-7.1289-15.309-0.98438-3.1875-1.918-6.1953-3.2383-8.6719-3.5469-6.6406-7.2344-10.617-10.684-11.484-2.4297-0.61719-5.3086 0.14453-9.0078 2.4102l-9.5586 16.543zm32.027 27.836c-16.695 0-28.422-3.2578-35.555-9.8281-5.4141-4.9922-8.0078-11.879-7.5039-19.926 0.046875-0.85938 0.29688-1.6875 0.73047-2.4297l10.926-18.922c0.42578-0.74219 1.0195-1.3789 1.7422-1.8516 6.918-4.5664 13.105-6.0703 18.934-4.5977 6.7461 1.7148 12.547 7.2852 17.738 17.023 1.8203 3.4102 2.957 7.0625 4.0469 10.609 3.1719 10.203 5.3281 15.57 16.207 16.66 2.7852 0.26953 4.9336 2.5898 4.9922 5.3945 0.070313 2.8047-1.9766 5.2109-4.75 5.6172-10.34 1.4922-19.492 2.2461-27.508 2.2461z"/>
  <path d="m402.79 355.65c-0.87891 0-1.7656-0.20313-2.582-0.64453l-135.2-71.375c-5.0977-2.6992-8.8086-7.3047-10.445-12.977-1.6953-5.8672-0.91406-12.254 2.1211-17.516 3.0352-5.2695 8.1797-9.1328 14.105-10.598 5.7422-1.418 11.582-0.51172 16.465 2.5625l129.42 81.387c2.5898 1.6289 3.3711 5.0586 1.7422 7.6484-1.6367 2.5938-5.0586 3.3711-7.6484 1.7422l-129.42-81.387c-2.3125-1.4531-5.1055-1.8672-7.8906-1.1836-3.0156 0.75-5.625 2.707-7.1602 5.375-1.5391 2.6602-1.9375 5.9062-1.0703 8.8828 0.78906 2.7539 2.5547 4.9727 4.9609 6.2422l135.19 71.387c2.7188 1.4258 3.7461 4.7891 2.3203 7.4961-0.99219 1.8789-2.918 2.957-4.9141 2.957z"/>
  <path d="m327.8 316.06c-0.93359 0-1.8906-0.24219-2.7656-0.74219-2.6602-1.5312-3.5664-4.9336-2.0312-7.582l14.125-24.473c1.543-2.6484 4.9336-3.5664 7.582-2.0312 2.6602 1.5312 3.5664 4.9336 2.0312 7.582l-14.125 24.473c-1.0312 1.7812-2.9023 2.7734-4.8164 2.7734z"/>
  <path d="m428.53 370.52c-0.94531 0-1.8984-0.24219-2.7656-0.74219l-25.754-14.867c-1.2695-0.74219-2.1953-1.9453-2.582-3.3711-0.375-1.4258-0.18359-2.9375 0.55859-4.2109l10.918-18.922c1.5312-2.6484 4.9336-3.5547 7.582-2.0234l25.746 14.855c2.6602 1.5312 3.5664 4.9336 2.0312 7.582-1.5312 2.6602-4.9219 3.5664-7.582 2.0312l-20.938-12.094-5.375 9.3086 20.945 12.09c2.6484 1.5312 3.5625 4.9219 2.0312 7.582-1.0312 1.7812-2.8984 2.7734-4.8164 2.7734z"/>
  <path d="m207.71 444.48h336.59v-224.45c0-15.59-12.68-28.27-28.27-28.27h-280.05c-15.59 0-28.27 12.68-28.27 28.27zm342.14 11.098h-347.69c-3.0625 0-5.5508-2.4844-5.5508-5.5508v-230c0-21.707 17.66-39.367 39.367-39.367h280.05c21.707 0 39.367 17.66 39.367 39.367v230c0 3.0625-2.4844 5.5508-5.5508 5.5508z"/>
  <path d="m235.51 416.67h280.97v-196.63c0-0.18359-0.26953-0.45312-0.45312-0.45312h-280.05c-0.18359 0-0.46484 0.26953-0.46484 0.45312zm286.52 11.098h-292.07c-3.0625 0-5.5391-2.4844-5.5391-5.5508v-202.18c0-6.2617 5.2891-11.551 11.551-11.551h280.05c6.2617 0 11.551 5.2891 11.551 11.551v202.18c0 3.0625-2.4883 5.5508-5.5508 5.5508z"/>
  <path d="m555.5 571.34h-359c-11.043 0-22.98-6.0508-29.039-14.703-4.2773-6.1289-5.3359-13.066-2.9688-19.559l32.453-88.941c1.0508-2.8789 4.2305-4.3633 7.1094-3.3125 2.8828 1.0508 4.3633 4.2305 3.3125 7.1094l-32.449 88.949c-1.1289 3.0742-0.57031 6.2344 1.6367 9.3945 3.9805 5.6758 12.547 9.9609 19.945 9.9609h359c7.3906 0 15.965-4.2891 19.945-9.9609 2.207-3.1602 2.7539-6.3203 1.6367-9.3945l-32.449-88.953c-1.0508-2.8789 0.43359-6.0586 3.3125-7.1094 2.8828-1.0508 6.0586 0.43359 7.1094 3.3125l32.453 88.949c2.3711 6.4766 1.3086 13.422-2.9766 19.551-6.0508 8.6523-17.988 14.703-29.031 14.703z"/>
  <path d="m323.85 571.34c-0.82812 0-1.6758-0.19141-2.4688-0.57813-2.7461-1.3672-3.8633-4.6914-2.5039-7.4375l21.883-44.188c0.94531-1.8867 2.8711-3.082 4.9805-3.082h60.527c2.1094 0 4.0352 1.1953 4.9727 3.082l21.891 44.188c1.3594 2.7461 0.24219 6.0703-2.5039 7.4375-2.7539 1.3594-6.0781 0.23047-7.4375-2.5156l-20.359-41.094h-53.648l-20.359 41.094c-0.96484 1.957-2.9297 3.0938-4.9727 3.0938z"/>
  <path d="m248.51 479.05h-21.004c-3.0625 0-5.5508-2.4844-5.5508-5.5508 0-3.0625 2.4844-5.5508 5.5508-5.5508h21.004c3.0625 0 5.5508 2.4844 5.5508 5.5508 0 3.0625-2.4844 5.5508-5.5508 5.5508z"/>
  <path d="m294.51 479.05h-21.004c-3.0625 0-5.5508-2.4844-5.5508-5.5508 0-3.0625 2.4844-5.5508 5.5508-5.5508h21.004c3.0625 0 5.5469 2.4844 5.5469 5.5508 0 3.0625-2.4844 5.5508-5.5469 5.5508z"/>
  <path d="m340.51 479.05h-21.004c-3.0625 0-5.5508-2.4844-5.5508-5.5508 0-3.0625 2.4844-5.5508 5.5508-5.5508h21.004c3.0625 0 5.5508 2.4844 5.5508 5.5508 0 3.0625-2.4844 5.5508-5.5508 5.5508z"/>
  <path d="m386.5 479.05h-21.004c-3.0625 0-5.5508-2.4844-5.5508-5.5508 0-3.0625 2.4844-5.5508 5.5508-5.5508h21.004c3.0625 0 5.5508 2.4844 5.5508 5.5508 0 3.0625-2.4844 5.5508-5.5508 5.5508z"/>
  <path d="m432.5 479.05h-21.004c-3.0625 0-5.5508-2.4844-5.5508-5.5508 0-3.0625 2.4844-5.5508 5.5508-5.5508h21.004c3.0625 0 5.5508 2.4844 5.5508 5.5508 0 3.0625-2.4844 5.5508-5.5508 5.5508z"/>
  <path d="m478.5 479.05h-21.004c-3.0625 0-5.5508-2.4844-5.5508-5.5508 0-3.0625 2.4844-5.5508 5.5508-5.5508h21.004c3.0625 0 5.5508 2.4844 5.5508 5.5508 0 3.0625-2.4844 5.5508-5.5508 5.5508z"/>
  <path d="m524.5 479.05h-21.004c-3.0625 0-5.5508-2.4844-5.5508-5.5508 0-3.0625 2.4844-5.5508 5.5508-5.5508h21.004c3.0625 0 5.5508 2.4844 5.5508 5.5508 0 3.0625-2.4844 5.5508-5.5508 5.5508z"/>
  <path d="m248.51 503.68h-21.004c-3.0625 0-5.5508-2.4844-5.5508-5.5508 0-3.0625 2.4844-5.5508 5.5508-5.5508h21.004c3.0625 0 5.5508 2.4844 5.5508 5.5508 0 3.0625-2.4844 5.5508-5.5508 5.5508z"/>
  <path d="m294.51 503.68h-21.004c-3.0625 0-5.5508-2.4844-5.5508-5.5508 0-3.0625 2.4844-5.5508 5.5508-5.5508h21.004c3.0625 0 5.5469 2.4844 5.5469 5.5508 0 3.0625-2.4844 5.5508-5.5469 5.5508z"/>
  <path d="m340.51 503.68h-21.004c-3.0625 0-5.5508-2.4844-5.5508-5.5508 0-3.0625 2.4844-5.5508 5.5508-5.5508h21.004c3.0625 0 5.5508 2.4844 5.5508 5.5508 0 3.0625-2.4844 5.5508-5.5508 5.5508z"/>
  <path d="m386.5 503.68h-21.004c-3.0625 0-5.5508-2.4844-5.5508-5.5508 0-3.0625 2.4844-5.5508 5.5508-5.5508h21.004c3.0625 0 5.5508 2.4844 5.5508 5.5508 0 3.0625-2.4844 5.5508-5.5508 5.5508z"/>
  <path d="m432.5 503.68h-21.004c-3.0625 0-5.5508-2.4844-5.5508-5.5508 0-3.0625 2.4844-5.5508 5.5508-5.5508h21.004c3.0625 0 5.5508 2.4844 5.5508 5.5508 0 3.0625-2.4844 5.5508-5.5508 5.5508z"/>
  <path d="m478.5 503.68h-21.004c-3.0625 0-5.5508-2.4844-5.5508-5.5508 0-3.0625 2.4844-5.5508 5.5508-5.5508h21.004c3.0625 0 5.5508 2.4844 5.5508 5.5508 0 3.0625-2.4844 5.5508-5.5508 5.5508z"/>
  <path d="m524.5 503.68h-21.004c-3.0625 0-5.5508-2.4844-5.5508-5.5508 0-3.0625 2.4844-5.5508 5.5508-5.5508h21.004c3.0625 0 5.5508 2.4844 5.5508 5.5508 0 3.0625-2.4844 5.5508-5.5508 5.5508z"/>
  <path d="m299.22 537.51h-71.715c-3.0625 0-5.5508-2.4844-5.5508-5.5508 0-3.0625 2.4844-5.5508 5.5508-5.5508h71.715c3.0625 0 5.5508 2.4844 5.5508 5.5508 0 3.0625-2.4844 5.5508-5.5508 5.5508z"/>
  <path d="m524.5 537.51h-71.715c-3.0625 0-5.5508-2.4844-5.5508-5.5508 0-3.0625 2.4844-5.5508 5.5508-5.5508h71.715c3.0625 0 5.5508 2.4844 5.5508 5.5508 0 3.0625-2.4844 5.5508-5.5508 5.5508z"/>
 </g>
</svg>
